<?xml version="1.0" standalone="no"?>
<!DOCTYPE svg PUBLIC "-//W3C//DTD SVG 20010904//EN"
 "http://www.w3.org/TR/2001/REC-SVG-20010904/DTD/svg10.dtd">
<svg version="1.0" xmlns="http://www.w3.org/2000/svg"
 width="2133.000000pt" height="2133.000000pt" viewBox="0 0 2133.000000 2133.000000"
 preserveAspectRatio="xMidYMid meet">
<metadata>
Created by potrace 1.11, written by Peter Selinger 2001-2013
</metadata>
<g transform="translate(0.000000,2133.000000) scale(0.100000,-0.100000)"
fill="#000000" stroke="none">
<path d="M5102 15840 c-116 -31 -206 -83 -298 -175 -88 -87 -138 -167 -176
-280 l-23 -70 -3 -3192 -2 -3193 6065 0 6065 0 -2 3198 -3 3197 -28 80 c-38
106 -85 182 -163 259 -77 78 -153 125 -259 163 l-80 28 -5510 2 c-5396 2
-5512 2 -5583 -17z"/>
<path d="M10583 8336 c-95 -30 -174 -118 -195 -219 -42 -199 140 -381 339
-339 155 32 257 186 225 338 -35 169 -205 271 -369 220z"/>
<path d="M9517 7193 c-4 -3 -7 -225 -7 -493 0 -537 0 -542 -65 -669 -83 -165
-257 -286 -444 -307 l-61 -7 0 -123 0 -124 1735 0 1735 0 0 124 0 123 -65 7
c-186 19 -362 138 -448 302 -65 126 -67 142 -67 687 l0 487 -1153 0 c-635 0
-1157 -3 -1160 -7z"/>
</g>
</svg>
